Coordinates
nRows=7
nColumns=38

# SIMM Motion File Header:
name Coordinates
datacolumns 38
datarows 7
otherdata 1
range 0.53891699999999998000 0.54491699999999998000

Units are S.I. units (second, meters, Newtons, ...)
Angles are in degrees.

endheader
time	pelvis_tilt	pelvis_list	pelvis_rotation	pelvis_tx	pelvis_ty	pelvis_tz	hip_flexion_r	hip_adduction_r	hip_rotation_r	knee_angle_r	ankle_angle_r	subtalar_angle_r	mtp_angle_r	hip_flexion_l	hip_adduction_l	hip_rotation_l	knee_angle_l	ankle_angle_l	subtalar_angle_l	mtp_angle_l	lumbar_extension	lumbar_bending	lumbar_rotation	arm_flex_r	arm_add_r	arm_rot_r	elbow_flex_r	pro_sup_r	wrist_flex_r	wrist_dev_r	arm_flex_l	arm_add_l	arm_rot_l	elbow_flex_l	pro_sup_l	wrist_flex_l	wrist_dev_l
      0.53891699999999998000	     -3.15052723616025340000	      2.73300247015308440000	     11.35011367688944100000	      0.79651551603445248000	      0.93649340114509361000	     -0.36869113981701340000	     34.63463682236966400000	     -7.86463960919254830000	     -5.15172401549061300000	   -133.99358847832829000000	      0.26568888662883949000	      0.00000000000005126767	     -0.00000000000006158909	      2.54364323342779870000	      7.62499288037767900000	      8.38459839542879770000	    -33.69935713670823000000	     20.61089997642648400000	     -0.00000000000001472346	     -0.00000000000002569293	    -13.06418188942530800000	     -5.01753086384752220000	     -7.93407459555630370000	    -35.53925859436069600000	    -23.43342141742785500000	     -7.49568381275247030000	     99.20283306040457200000	     80.80265289138571900000	      0.00000000000000837958	      0.00000000000001510479	     22.22508278989455000000	    -36.74577692848289700000	     -1.30837087170843840000	    129.18441123774858000000	     83.18300303163552200000	      0.00000000000003585984	     -0.00000000000003465454
      0.53991699999999998000	     -3.12054594644938590000	      2.58221751798602250000	     11.36395347195591500000	      0.79681266137598949000	      0.93700683517056671000	     -0.36877722359332032000	     35.05771497338191300000	     -7.76264155343625010000	     -5.18015747332112310000	   -133.60685698197415000000	      0.36300264921477782000	      0.00000000000005135222	     -0.00000000000006173036	      1.98232333061989090000	      7.36109354193727410000	      8.46026719081823410000	    -33.26288546288351700000	     20.35294666019643400000	     -0.00000000000001472707	     -0.00000000000002632453	    -13.02962633830214600000	     -4.81318325520102960000	     -8.07698070963631310000	    -35.81920323839870700000	    -23.49666584341851200000	     -7.70789179917020920000	     99.38133955953463800000	     80.60645848980659900000	      0.00000000000000841147	      0.00000000000001519914	     22.22906009539104500000	    -36.50000120927175800000	     -1.15374371555043840000	    129.25741782807734000000	     82.92297460515246100000	      0.00000000000003595620	     -0.00000000000003478989
      0.54091699999999998000	     -3.09288538310167560000	      2.43010782587224080000	     11.37780895281422600000	      0.79712051600506673000	      0.93752309454504723000	     -0.36886401733675783000	     35.47626061155754900000	     -7.66046225834674030000	     -5.21155184270680390000	   -133.20796126339894000000	      0.46025677286839872000	      0.00000000000005144125	     -0.00000000000006186804	      1.42306129303105780000	      7.09530990461290670000	      8.53490918213316800000	    -32.82123764767057800000	     20.07721566780580600000	     -0.00000000000001474506	     -0.00000000000002693640	    -12.99067147860628400000	     -4.60744772215449580000	     -8.21960546210515200000	    -36.10181728589095200000	    -23.56156915699183000000	     -7.92186002478451010000	     99.56548370628503600000	     80.41122456920202000000	      0.00000000000000844422	      0.00000000000001529344	     22.22640465403682700000	    -36.25903790572683500000	     -0.99471872741038914000	    129.32995790269351000000	     82.67086488812569200000	      0.00000000000003605283	     -0.00000000000003492764
      0.54191699999999998000	     -3.06759247686986080000	      2.27683101968918720000	     11.39165532819690300000	      0.79743885911039381000	      0.93804194504685612000	     -0.36895142990308083000	     35.89024783979468900000	     -7.55826620249971800000	     -5.24573618632387980000	   -132.79709554429738000000	      0.55744876953973965000	      0.00000000000005152803	     -0.00000000000006200216	      0.86597464093497956000	      6.82786825856143050000	      8.60838405529334420000	    -32.37448877614319500000	     19.78351102164430500000	     -0.00000000000001475833	     -0.00000000000002753170	    -12.94733035596410000000	     -4.40052620039017130000	     -8.36192262994971000000	    -36.38696281295381100000	    -23.62801343130660200000	     -8.13752555219779520000	     99.75479568622523600000	     80.21737109703828100000	      0.00000000000000847496	      0.00000000000001538469	     22.21733858970770100000	    -36.02293152830908700000	     -0.83117344130908721000	    129.40191254756510000000	     82.42714691557360100000	      0.00000000000003614655	     -0.00000000000003506946
      0.54291699999999998000	     -3.04470553569996170000	      2.12254209110832770000	     11.40546626600718800000	      0.79776744571849634000	      0.93856315864954154000	     -0.36903936889033773000	     36.29964951862784500000	     -7.45620918344166840000	     -5.28253931802063810000	   -132.37445300461138000000	      0.65457346896673663000	      0.00000000000005160215	     -0.00000000000006213346	      0.31118267844728920000	      6.55899045958902870000	      8.68053214187201760000	    -31.92273588640041700000	     19.47165657950582200000	     -0.00000000000001479091	     -0.00000000000002812384	    -12.89962922388023600000	     -4.19261492903704540000	     -8.50390593352405940000	    -36.67449673508841100000	    -23.69588161412440600000	     -8.35482123631227760000	     99.94881096296231200000	     80.02529744083571500000	      0.00000000000000850596	      0.00000000000001547148	     22.20207773002506700000	    -35.79172319341879000000	     -0.66300384534291512000	    129.47317187045226000000	     82.19224962142578800000	      0.00000000000003623879	     -0.00000000000003522441
      0.54391699999999998000	     -3.02425366486195730000	      1.96739296337404190000	     11.41921449518901500000	      0.79810600653334407000	      0.93908651487793793000	     -0.36912774121098529000	     36.70443625270662100000	     -7.35443831214982420000	     -5.32179119075581660000	   -131.94022535374197000000	      0.75162305663216367000	      0.00000000000005167363	     -0.00000000000006226450	     -0.24119339029962239000	      6.28889335589403320000	      8.75117441486695390000	    -31.46609949783138300000	     19.14149751862893100000	     -0.00000000000001483818	     -0.00000000000002873250	    -12.84760814290898300000	     -3.98390376256512900000	     -8.64552940949007540000	    -36.96427109313672300000	    -23.76505769661795900000	     -8.57367626854726340000	    100.14707168539944000000	     79.83538060491191900000	      0.00000000000000853654	      0.00000000000001555537	     22.18083217041958100000	    -35.56545080085256700000	     -0.49012391146168088000	    129.54363489726762000000	     81.96655708892659200000	      0.00000000000003633363	     -0.00000000000003539545
      0.54491699999999998000	     -3.00626388975509110000	      1.81153201989550380000	     11.43287254384693300000	      0.79845424572157209000	      0.93961178999067763000	     -0.36921645391425167000	     37.10458501474632700000	     -7.25309352309216490000	     -5.36332292900774730000	   -131.49460391124117000000	      0.84858621629444986000	      0.00000000000005173676	     -0.00000000000006239225	     -0.79102120030701151000	      6.01779013863706960000	      8.82011293166338820000	    -31.00472745844568200000	     18.79290540708355900000	     -0.00000000000001490370	     -0.00000000000002930104	    -12.79131295513141200000	     -3.77457719076577410000	     -8.78676806530354780000	    -37.25613428724582800000	    -23.83542660582712700000	     -8.79401657224969390000	    100.34912724229510000000	     79.64797453156680300000	      0.00000000000000856817	      0.00000000000001563848	     22.15380467794011600000	    -35.34414909181533200000	     -0.31246572160676911000	    129.61320984718188000000	     81.75040929361937000000	      0.00000000000003642712	     -0.00000000000003556958
